<svg width="234" height="57" viewBox="0 0 234 57" fill="none" xmlns="http://www.w3.org/2000/svg">
<g clip-path="url(#clip0_183_2132)">
<path d="M41.6458 19.2416C36.7542 19.2416 36.5283 21.902 36.5283 26.9974V30.8225L32.5931 26.1212V18.559C32.5931 13.8189 30.9167 9.87418 27.7439 7.14347C24.7016 4.52537 20.4347 3.14243 15.3948 3.14243H5.68924C2.24817 3.13891 1.84936 1.63631 1.84936 0.506729V0H0V0.506729C0 1.85097 0.554101 4.98284 5.68924 4.98284H6.55745V17.1971H11.8338C12.0138 17.183 12.6314 17.1127 13.0796 16.7678C13.4749 16.4652 13.7078 16.1555 13.7749 16.0605L14.9184 14.5192V19.2205H7.88447C7.60565 19.21 6.06688 19.2029 5.05396 20.2058C3.9987 21.2474 4.02694 22.8908 4.03047 23.0421V30.7486L9.35972 29.6788V26.3957H14.929C14.989 28.7252 15.6631 29.4044 17.9077 31.6354L20.1982 33.7784C18.4018 33.8347 17.5548 34.711 17.1595 35.4499C16.7077 36.298 16.7077 37.227 16.7113 37.6739V43.174H9.98088L11.0891 48.5475H19.7182C19.8629 48.5404 21.1617 48.456 21.9523 47.5692C22.6899 46.7458 22.6793 45.4402 22.6723 45.2185V42.1535H29.145L30.7861 43.6878C31.2167 44.0538 33.426 46.3516 36.3589 46.3516H37.6083V57L43.661 55.888V44.6837C43.661 42.1606 42.6164 41.2386 41.9952 40.6897L41.4729 40.2181L38.3741 37.5859V26.9974C38.3741 21.638 38.6777 21.0856 41.6423 21.0856H44.261C43.8975 21.7612 43.0469 22.553 41.0493 22.553H40.3823V24.3969H41.0493C45.2175 24.3969 46.361 21.6345 46.3821 20.1742L46.3962 19.2381H41.6423L41.6458 19.2416ZM20.8229 40.3061V45.2502C20.8335 45.5282 20.7594 46.13 20.5758 46.3376C20.3606 46.5769 19.8665 46.6824 19.6512 46.7H12.5996L12.2502 45.0144H18.5571V37.6669C18.5571 37.3255 18.5571 36.7519 18.79 36.3121C18.9488 36.013 19.2877 35.6153 20.3782 35.6153H22.1605L27.1756 40.3061H20.8229V40.3061ZM36.5283 38.4375L40.2553 41.6011L40.7741 42.0691C41.2611 42.5019 41.8187 42.9911 41.8187 44.6837V54.3538L39.4647 54.7866V44.5077H36.366C34.1143 44.5077 32.2578 42.5125 32.092 42.3717L19.1994 30.3087C17.1136 28.2326 16.8136 27.9334 16.7818 26.3921H18.4194C20.1982 26.3921 21.6452 25.8326 22.7181 24.7242C24.6875 22.6937 24.6063 19.5724 24.6028 19.4704V19.2346H22.7534V19.4985C22.7534 19.5232 22.8064 21.9899 21.3841 23.4468C20.6641 24.1858 19.6935 24.5447 18.423 24.5447H7.51036V28.1622L5.88335 28.4894V23.0069C5.87629 22.7465 5.95041 21.9125 6.35628 21.5114C6.76215 21.1102 7.55624 21.0504 7.82094 21.0574H16.7748V11.1727H15.1054L12.2714 14.9943C12.2714 14.9943 12.1549 15.1526 11.9749 15.2934C11.9326 15.3145 11.8161 15.3462 11.7279 15.3532H8.41033V4.98284H15.3984C24.864 4.98284 30.7438 10.1838 30.7438 18.5554V26.7863L35.2366 32.1562C35.2366 32.1562 35.4766 32.4342 35.653 32.7087C36.2354 33.6201 36.5283 34.6546 36.5283 35.7807V38.4375V38.4375Z" fill="black"/>
<path d="M78.4714 40.75V54.027H76.4244V46.6126L71.921 52.9854H71.8857L67.4882 46.9117V54.027H65.4941V40.75H65.5118L71.921 49.8007L78.4361 40.75H78.4714V40.75Z" fill="black"/>
<path d="M98.1006 41.2066V43.1773H91.6385V46.5942H96.1842V48.5648H91.6385V52.0521H98.3477V54.0227H89.5703V41.2031H98.1006V41.2066Z" fill="black"/>
<path d="M116.735 53.7937C116.068 54.04 115.341 54.1632 114.554 54.1632C113.224 54.1632 112.062 53.8711 111.067 53.2905C110.072 52.7098 109.306 51.9286 108.77 50.9469C108.233 49.9651 107.965 48.8883 107.965 47.7165C107.965 46.4356 108.233 45.2919 108.77 44.282C109.306 43.272 110.054 42.4838 111.014 41.9137C111.974 41.3436 113.065 41.0586 114.289 41.0586C115.041 41.0586 115.74 41.1571 116.382 41.3577C117.025 41.5583 117.593 41.8081 118.087 42.1143L117.275 44.0321C116.322 43.3635 115.352 43.0292 114.36 43.0292C113.605 43.0292 112.902 43.2333 112.249 43.638C111.596 44.0427 111.074 44.5951 110.686 45.2919C110.298 45.9922 110.104 46.7558 110.104 47.5898C110.104 48.4695 110.284 49.2613 110.644 49.958C111.004 50.6583 111.515 51.2037 112.179 51.5943C112.842 51.9885 113.612 52.1855 114.483 52.1855C115.108 52.1855 115.669 52.0905 116.17 51.904C116.672 51.7175 117.092 51.4747 117.434 51.1826L118.299 53.0125C117.921 53.2834 117.402 53.5403 116.735 53.7866V53.7937Z" fill="black"/>
<path d="M136.577 53.7937C135.91 54.04 135.183 54.1632 134.396 54.1632C133.065 54.1632 131.904 53.8711 130.909 53.2905C129.914 52.7098 129.148 51.9286 128.611 50.9469C128.075 49.9651 127.807 48.8883 127.807 47.7165C127.807 46.4356 128.075 45.2919 128.611 44.282C129.148 43.272 129.896 42.4838 130.856 41.9137C131.816 41.3436 132.906 41.0586 134.131 41.0586C134.883 41.0586 135.582 41.1571 136.224 41.3577C136.866 41.5583 137.435 41.8081 137.929 42.1143L137.117 44.0321C136.164 43.3635 135.193 43.0292 134.202 43.0292C133.446 43.0292 132.744 43.2333 132.091 43.638C131.438 44.0427 130.916 44.5951 130.528 45.2919C130.14 45.9922 129.945 46.7558 129.945 47.5898C129.945 48.4695 130.125 49.2613 130.485 49.958C130.845 50.6583 131.357 51.2037 132.021 51.5943C132.684 51.9885 133.454 52.1855 134.325 52.1855C134.95 52.1855 135.511 52.0905 136.012 51.904C136.513 51.7175 136.933 51.4747 137.276 51.1826L138.14 53.0125C137.763 53.2834 137.244 53.5403 136.577 53.7866V53.7937Z" fill="black"/>
<path d="M154.366 49.2515L152.76 45.2012L151.101 49.2515H152.735L153.254 51.0109H150.378L149.143 54.0232H147.113L152.799 40.6758H152.923L158.608 54.0232H156.24L155.058 51.0109" fill="black"/>
<path d="M179.717 41.2074V54.4845H179.664L170.393 45.5217L170.446 54.027H168.363V40.7676H168.469L177.705 49.8359L177.67 41.2074H179.717V41.2074Z" fill="black"/>
<path d="M192.903 41.207V54.0266H190.838V41.207H192.903Z" fill="black"/>
<path d="M211.977 53.7937C211.31 54.04 210.583 54.1632 209.796 54.1632C208.466 54.1632 207.305 53.8711 206.309 53.2905C205.314 52.7098 204.548 51.9286 204.012 50.9469C203.475 49.9651 203.207 48.8883 203.207 47.7165C203.207 46.4356 203.475 45.2919 204.012 44.282C204.548 43.272 205.296 42.4838 206.256 41.9137C207.216 41.3436 208.307 41.0586 209.532 41.0586C210.283 41.0586 210.982 41.1571 211.624 41.3577C212.267 41.5583 212.835 41.8081 213.329 42.1143L212.517 44.0321C211.564 43.3635 210.594 43.0292 209.602 43.0292C208.847 43.0292 208.145 43.2333 207.492 43.638C206.839 44.0427 206.316 44.5951 205.928 45.2919C205.54 45.9922 205.346 46.7558 205.346 47.5898C205.346 48.4695 205.526 49.2613 205.886 49.958C206.246 50.6583 206.758 51.2037 207.421 51.5943C208.085 51.9885 208.854 52.1855 209.726 52.1855C210.35 52.1855 210.912 52.0905 211.413 51.904C211.914 51.7175 212.334 51.4747 212.676 51.1826L213.541 53.0125C213.163 53.2834 212.644 53.5403 211.977 53.7866V53.7937Z" fill="black"/>
<path d="M229.762 49.2515L228.157 45.2012L226.498 49.2515H228.132L228.615 51.0109H225.774L224.539 54.0232H222.51L228.195 40.6758H228.319L234.005 54.0232H231.637L230.454 51.0109" fill="black"/>
<path d="M82.0991 6.45703V10.2962H69.5136V16.947H78.3651V20.7862H69.5136V27.5743H82.5827V31.4134H65.4902V6.45703H82.0991V6.45703Z" fill="black"/>
<path d="M94.5156 6.45703V27.5778H106.861V31.417H90.4922V6.45703H94.5156Z" fill="black"/>
<path d="M131.138 6.45703V10.2962H118.553V16.947H127.404V20.7862H118.553V27.5743H131.622V31.4134H114.529V6.45703H131.138V6.45703Z" fill="black"/>
<path d="M155.056 30.9746C153.76 31.4567 152.345 31.696 150.81 31.696C148.219 31.696 145.954 31.1295 144.019 29.9999C142.082 28.8668 140.593 27.3501 139.548 25.4393C138.503 23.532 137.984 21.4347 137.984 19.1474C137.984 16.656 138.507 14.4285 139.548 12.4614C140.589 10.4943 142.047 8.95653 143.917 7.84806C145.784 6.73959 147.912 6.18359 150.298 6.18359C151.766 6.18359 153.125 6.37714 154.374 6.76774C155.624 7.15482 156.729 7.64748 157.692 8.24218L156.111 11.9793C154.254 10.6773 152.363 10.0263 150.436 10.0263C148.968 10.0263 147.598 10.4204 146.328 11.2087C145.054 11.9969 144.041 13.0702 143.285 14.432C142.53 15.7939 142.149 17.2824 142.149 18.9046C142.149 20.6183 142.498 22.1561 143.197 23.518C143.896 24.8798 144.895 25.9425 146.19 26.7061C147.485 27.4733 148.982 27.8533 150.676 27.8533C151.89 27.8533 152.984 27.6703 153.962 27.3043C154.936 26.9384 155.754 26.4704 156.421 25.8968L158.105 29.4615C157.371 29.9893 156.358 30.489 155.063 30.9711L155.056 30.9746Z" fill="black"/>
<path d="M180.76 6.45703V10.2962H174.295V31.417H170.306V10.2997H164.014V6.46055H180.76V6.45703Z" fill="black"/>
<path d="M195.819 18.9071C197.425 18.9071 198.586 18.4672 199.31 17.5875C200.033 16.7077 200.393 15.7189 200.393 14.621C200.393 13.9806 200.256 13.3366 199.98 12.6821C199.705 12.0311 199.236 11.4715 198.572 11.0035C197.909 10.5355 197.037 10.2997 195.957 10.2997H192.244V31.4205H188.221V6.45703H195.272C198.067 6.45703 200.309 7.16434 201.996 8.58248C203.679 10.0006 204.523 11.9642 204.523 14.4802C204.523 16.011 204.194 17.4362 203.541 18.7487C202.888 20.0648 201.861 21.0748 200.464 21.7821L206.552 31.417H201.911L196.271 22.7427H195.858L195.823 18.9036L195.819 18.9071Z" fill="black"/>
<path d="M222.618 14.2408L219.385 22.1267H222.487L223.694 25.5542H217.973L215.566 31.4168H211.613L222.688 5.42578H222.928L234.003 31.4168H229.394L222.618 14.2372V14.2408Z" fill="black"/>
</g>
<defs>
<clipPath id="clip0_183_2132">
<rect width="234" height="57" fill="white"/>
</clipPath>
</defs>
</svg>
